<?xml version="1.0" encoding="utf-8"?>
<!-- Generator: Adobe Illustrator 16.0.0, SVG Export Plug-In . SVG Version: 6.00 Build 0)  -->
<!DOCTYPE svg PUBLIC "-//W3C//DTD SVG 1.1//EN" "http://www.w3.org/Graphics/SVG/1.1/DTD/svg11.dtd">
<svg version="1.1" id="Layer_1" xmlns="http://www.w3.org/2000/svg" xmlns:xlink="http://www.w3.org/1999/xlink" x="0px" y="0px"
	 width="250px" height="250px" viewBox="0 0 250 250" enable-background="new 0 0 250 250" xml:space="preserve">
<circle fill="none" stroke="#fff" stroke-width="5" stroke-miterlimit="10" cx="125" cy="125" r="115.293"/>
<g id="XMLID_1_">
	<g>
		<path d="M125,65.89c32.64,0,59.11,26.47,59.11,59.11c0,32.641-26.471,59.11-59.11,59.11c-32.64,0-59.11-26.47-59.11-59.11
			C65.89,92.36,92.36,65.89,125,65.89z"/>
	</g>
	<g>
		<path fill="#fff" stroke="#fff" stroke-miterlimit="10" d="M184.11,125c0,32.641-26.471,59.11-59.11,59.11
			c-32.64,0-59.11-26.47-59.11-59.11c0-32.64,26.47-59.11,59.11-59.11C157.64,65.89,184.11,92.36,184.11,125z"/>
	</g>
</g>
<g id="XMLID_2_">
	<g>
		<circle cx="199.2" cy="41.265" r="15.779"/>
	</g>
	<g>
		<circle fill="#fff" stroke="#fff" stroke-miterlimit="10" cx="199.2" cy="41.265" r="15.779"/>
	</g>
</g>
</svg>
